<svg width="147" height="45" viewBox="0 0 147 45" fill="none" xmlns="http://www.w3.org/2000/svg">
<path d="M9.90009 39.812C9.90009 38.996 10.0881 38.264 10.4641 37.616C10.8481 36.968 11.3641 36.464 12.0121 36.104C12.6681 35.736 13.3841 35.552 14.1601 35.552C15.0481 35.552 15.8361 35.772 16.5241 36.212C17.2201 36.644 17.7241 37.26 18.0361 38.06H16.3921C16.1761 37.62 15.8761 37.292 15.4921 37.076C15.1081 36.86 14.6641 36.752 14.1601 36.752C13.6081 36.752 13.1161 36.876 12.6841 37.124C12.2521 37.372 11.9121 37.728 11.6641 38.192C11.4241 38.656 11.3041 39.196 11.3041 39.812C11.3041 40.428 11.4241 40.968 11.6641 41.432C11.9121 41.896 12.2521 42.256 12.6841 42.512C13.1161 42.76 13.6081 42.884 14.1601 42.884C14.6641 42.884 15.1081 42.776 15.4921 42.56C15.8761 42.344 16.1761 42.016 16.3921 41.576H18.0361C17.7241 42.376 17.2201 42.992 16.5241 43.424C15.8361 43.856 15.0481 44.072 14.1601 44.072C13.3761 44.072 12.6601 43.892 12.0121 43.532C11.3641 43.164 10.8481 42.656 10.4641 42.008C10.0881 41.36 9.90009 40.628 9.90009 39.812ZM24.1613 44.084C23.3853 44.084 22.6693 43.904 22.0133 43.544C21.3653 43.176 20.8493 42.668 20.4653 42.02C20.0893 41.364 19.9013 40.628 19.9013 39.812C19.9013 38.996 20.0893 38.264 20.4653 37.616C20.8493 36.968 21.3653 36.464 22.0133 36.104C22.6693 35.736 23.3853 35.552 24.1613 35.552C24.9453 35.552 25.6613 35.736 26.3093 36.104C26.9653 36.464 27.4813 36.968 27.8573 37.616C28.2333 38.264 28.4213 38.996 28.4213 39.812C28.4213 40.628 28.2333 41.364 27.8573 42.02C27.4813 42.668 26.9653 43.176 26.3093 43.544C25.6613 43.904 24.9453 44.084 24.1613 44.084ZM24.1613 42.896C24.7133 42.896 25.2053 42.772 25.6373 42.524C26.0693 42.268 26.4053 41.908 26.6453 41.444C26.8933 40.972 27.0173 40.428 27.0173 39.812C27.0173 39.196 26.8933 38.656 26.6453 38.192C26.4053 37.728 26.0693 37.372 25.6373 37.124C25.2053 36.876 24.7133 36.752 24.1613 36.752C23.6093 36.752 23.1173 36.876 22.6853 37.124C22.2533 37.372 21.9133 37.728 21.6653 38.192C21.4253 38.656 21.3053 39.196 21.3053 39.812C21.3053 40.428 21.4253 40.972 21.6653 41.444C21.9133 41.908 22.2533 42.268 22.6853 42.524C23.1173 42.772 23.6093 42.896 24.1613 42.896ZM37.3395 44H35.9715L31.8555 37.772V44H30.4875V35.648H31.8555L35.9715 41.864V35.648H37.3395V44ZM44.7639 35.66V36.776H41.2239V39.236H43.9839V40.352H41.2239V44H39.8559V35.66H44.7639ZM48.1197 36.764V39.212H50.9997V40.328H48.1197V42.884H51.3597V44H46.7517V35.648H51.3597V36.764H48.1197ZM58.0967 44L56.1767 40.664H55.1327V44H53.7647V35.66H56.6447C57.2847 35.66 57.8247 35.772 58.2647 35.996C58.7127 36.22 59.0447 36.52 59.2607 36.896C59.4847 37.272 59.5967 37.692 59.5967 38.156C59.5967 38.7 59.4367 39.196 59.1167 39.644C58.8047 40.084 58.3207 40.384 57.6647 40.544L59.7287 44H58.0967ZM55.1327 39.572H56.6447C57.1567 39.572 57.5407 39.444 57.7967 39.188C58.0607 38.932 58.1927 38.588 58.1927 38.156C58.1927 37.724 58.0647 37.388 57.8087 37.148C57.5527 36.9 57.1647 36.776 56.6447 36.776H55.1327V39.572ZM63.4347 36.764V39.212H66.3147V40.328H63.4347V42.884H66.6747V44H62.0667V35.648H66.6747V36.764H63.4347ZM75.9317 44H74.5637L70.4477 37.772V44H69.0797V35.648H70.4477L74.5637 41.864V35.648H75.9317V44ZM77.9921 39.812C77.9921 38.996 78.1801 38.264 78.5561 37.616C78.9401 36.968 79.4561 36.464 80.1041 36.104C80.7601 35.736 81.4761 35.552 82.2521 35.552C83.1401 35.552 83.9281 35.772 84.6161 36.212C85.3121 36.644 85.8161 37.26 86.1281 38.06H84.4841C84.2681 37.62 83.9681 37.292 83.5841 37.076C83.2001 36.86 82.7561 36.752 82.2521 36.752C81.7001 36.752 81.2081 36.876 80.7761 37.124C80.3441 37.372 80.0041 37.728 79.7561 38.192C79.5161 38.656 79.3961 39.196 79.3961 39.812C79.3961 40.428 79.5161 40.968 79.7561 41.432C80.0041 41.896 80.3441 42.256 80.7761 42.512C81.2081 42.76 81.7001 42.884 82.2521 42.884C82.7561 42.884 83.2001 42.776 83.5841 42.56C83.9681 42.344 84.2681 42.016 84.4841 41.576H86.1281C85.8161 42.376 85.3121 42.992 84.6161 43.424C83.9281 43.856 83.1401 44.072 82.2521 44.072C81.4681 44.072 80.7521 43.892 80.1041 43.532C79.4561 43.164 78.9401 42.656 78.5561 42.008C78.1801 41.36 77.9921 40.628 77.9921 39.812ZM89.8174 36.764V39.212H92.6974V40.328H89.8174V42.884H93.0574V44H88.4494V35.648H93.0574V36.764H89.8174ZM103.632 44L101.712 40.664H100.668V44H99.2995V35.66H102.18C102.82 35.66 103.36 35.772 103.8 35.996C104.248 36.22 104.58 36.52 104.796 36.896C105.02 37.272 105.132 37.692 105.132 38.156C105.132 38.7 104.972 39.196 104.652 39.644C104.34 40.084 103.856 40.384 103.2 40.544L105.264 44H103.632ZM100.668 39.572H102.18C102.692 39.572 103.076 39.444 103.332 39.188C103.596 38.932 103.728 38.588 103.728 38.156C103.728 37.724 103.6 37.388 103.344 37.148C103.088 36.9 102.7 36.776 102.18 36.776H100.668V39.572ZM111.406 44.084C110.63 44.084 109.914 43.904 109.258 43.544C108.61 43.176 108.094 42.668 107.71 42.02C107.334 41.364 107.146 40.628 107.146 39.812C107.146 38.996 107.334 38.264 107.71 37.616C108.094 36.968 108.61 36.464 109.258 36.104C109.914 35.736 110.63 35.552 111.406 35.552C112.19 35.552 112.906 35.736 113.554 36.104C114.21 36.464 114.726 36.968 115.102 37.616C115.478 38.264 115.666 38.996 115.666 39.812C115.666 40.628 115.478 41.364 115.102 42.02C114.726 42.668 114.21 43.176 113.554 43.544C112.906 43.904 112.19 44.084 111.406 44.084ZM111.406 42.896C111.958 42.896 112.45 42.772 112.882 42.524C113.314 42.268 113.65 41.908 113.89 41.444C114.138 40.972 114.262 40.428 114.262 39.812C114.262 39.196 114.138 38.656 113.89 38.192C113.65 37.728 113.314 37.372 112.882 37.124C112.45 36.876 111.958 36.752 111.406 36.752C110.854 36.752 110.362 36.876 109.93 37.124C109.498 37.372 109.158 37.728 108.91 38.192C108.67 38.656 108.55 39.196 108.55 39.812C108.55 40.428 108.67 40.972 108.91 41.444C109.158 41.908 109.498 42.268 109.93 42.524C110.362 42.772 110.854 42.896 111.406 42.896ZM121.536 44.084C120.76 44.084 120.044 43.904 119.388 43.544C118.74 43.176 118.224 42.668 117.84 42.02C117.464 41.364 117.276 40.628 117.276 39.812C117.276 38.996 117.464 38.264 117.84 37.616C118.224 36.968 118.74 36.464 119.388 36.104C120.044 35.736 120.76 35.552 121.536 35.552C122.32 35.552 123.036 35.736 123.684 36.104C124.34 36.464 124.856 36.968 125.232 37.616C125.608 38.264 125.796 38.996 125.796 39.812C125.796 40.628 125.608 41.364 125.232 42.02C124.856 42.668 124.34 43.176 123.684 43.544C123.036 43.904 122.32 44.084 121.536 44.084ZM121.536 42.896C122.088 42.896 122.58 42.772 123.012 42.524C123.444 42.268 123.78 41.908 124.02 41.444C124.268 40.972 124.392 40.428 124.392 39.812C124.392 39.196 124.268 38.656 124.02 38.192C123.78 37.728 123.444 37.372 123.012 37.124C122.58 36.876 122.088 36.752 121.536 36.752C120.984 36.752 120.492 36.876 120.06 37.124C119.628 37.372 119.288 37.728 119.04 38.192C118.8 38.656 118.68 39.196 118.68 39.812C118.68 40.428 118.8 40.972 119.04 41.444C119.288 41.908 119.628 42.268 120.06 42.524C120.492 42.772 120.984 42.896 121.536 42.896ZM136.646 35.66V44H135.278V38.288L132.734 44H131.786L129.23 38.288V44H127.862V35.66H129.338L132.266 42.2L135.182 35.66H136.646Z" fill="#AFAFAF"/>
<path d="M34.8918 4.16V29H32.3718V9.164L23.5158 29H21.6798L12.8238 9.236V29H10.3038V4.16H12.9678L22.5798 25.688L32.1918 4.16H34.8918ZM58.3925 18.164C58.3925 19.028 58.3685 19.688 58.3205 20.144H42.0125C42.0845 21.632 42.4445 22.904 43.0925 23.96C43.7405 25.016 44.5925 25.82 45.6485 26.372C46.7045 26.9 47.8565 27.164 49.1045 27.164C50.7365 27.164 52.1045 26.768 53.2085 25.976C54.3365 25.184 55.0805 24.116 55.4405 22.772H58.1045C57.6245 24.692 56.5925 26.264 55.0085 27.488C53.4485 28.688 51.4805 29.288 49.1045 29.288C47.2565 29.288 45.6005 28.88 44.1365 28.064C42.6725 27.224 41.5205 26.048 40.6805 24.536C39.8645 23 39.4565 21.212 39.4565 19.172C39.4565 17.132 39.8645 15.344 40.6805 13.808C41.4965 12.272 42.6365 11.096 44.1005 10.28C45.5645 9.464 47.2325 9.056 49.1045 9.056C50.9765 9.056 52.6085 9.464 54.0005 10.28C55.4165 11.096 56.4965 12.2 57.2405 13.592C58.0085 14.96 58.3925 16.484 58.3925 18.164ZM55.8365 18.092C55.8605 16.628 55.5605 15.38 54.9365 14.348C54.3365 13.316 53.5085 12.536 52.4525 12.008C51.3965 11.48 50.2445 11.216 48.9965 11.216C47.1245 11.216 45.5285 11.816 44.2085 13.016C42.8885 14.216 42.1565 15.908 42.0125 18.092H55.8365ZM80.787 18.164C80.787 19.028 80.763 19.688 80.715 20.144H64.407C64.479 21.632 64.839 22.904 65.487 23.96C66.135 25.016 66.987 25.82 68.043 26.372C69.099 26.9 70.251 27.164 71.499 27.164C73.131 27.164 74.499 26.768 75.603 25.976C76.731 25.184 77.475 24.116 77.835 22.772H80.499C80.019 24.692 78.987 26.264 77.403 27.488C75.843 28.688 73.875 29.288 71.499 29.288C69.651 29.288 67.995 28.88 66.531 28.064C65.067 27.224 63.915 26.048 63.075 24.536C62.259 23 61.851 21.212 61.851 19.172C61.851 17.132 62.259 15.344 63.075 13.808C63.891 12.272 65.031 11.096 66.495 10.28C67.959 9.464 69.627 9.056 71.499 9.056C73.371 9.056 75.003 9.464 76.395 10.28C77.811 11.096 78.891 12.2 79.635 13.592C80.403 14.96 80.787 16.484 80.787 18.164ZM78.231 18.092C78.255 16.628 77.955 15.38 77.331 14.348C76.731 13.316 75.903 12.536 74.847 12.008C73.791 11.48 72.639 11.216 71.391 11.216C69.519 11.216 67.923 11.816 66.603 13.016C65.283 14.216 64.551 15.908 64.407 18.092H78.231ZM88.6736 11.468V23.672C88.6736 24.872 88.9016 25.7 89.3576 26.156C89.8136 26.612 90.6176 26.84 91.7696 26.84H94.0736V29H91.3736C89.5976 29 88.2776 28.592 87.4136 27.776C86.5496 26.936 86.1176 25.568 86.1176 23.672V11.468H83.3816V9.344H86.1176V4.412H88.6736V9.344H94.0736V11.468H88.6736ZM111.622 29L105.394 18.488H100.75V29H98.2296V3.836H105.79C108.598 3.836 110.722 4.508 112.162 5.852C113.626 7.196 114.358 8.96 114.358 11.144C114.358 12.968 113.83 14.528 112.774 15.824C111.742 17.096 110.206 17.924 108.166 18.308L114.646 29H111.622ZM100.75 16.436H105.826C107.794 16.436 109.27 15.956 110.254 14.996C111.262 14.036 111.766 12.752 111.766 11.144C111.766 9.488 111.286 8.216 110.326 7.328C109.366 6.416 107.854 5.96 105.79 5.96H100.75V16.436ZM127.963 29.288C126.115 29.288 124.447 28.88 122.959 28.064C121.495 27.224 120.331 26.048 119.467 24.536C118.627 23 118.207 21.212 118.207 19.172C118.207 17.132 118.639 15.356 119.503 13.844C120.367 12.308 121.543 11.132 123.031 10.316C124.519 9.476 126.187 9.056 128.035 9.056C129.883 9.056 131.551 9.476 133.039 10.316C134.551 11.132 135.727 12.308 136.567 13.844C137.431 15.356 137.863 17.132 137.863 19.172C137.863 21.188 137.431 22.964 136.567 24.5C135.703 26.036 134.515 27.224 133.003 28.064C131.491 28.88 129.811 29.288 127.963 29.288ZM127.963 27.092C129.259 27.092 130.459 26.804 131.563 26.228C132.667 25.628 133.555 24.74 134.227 23.564C134.923 22.364 135.271 20.9 135.271 19.172C135.271 17.444 134.935 15.992 134.263 14.816C133.591 13.616 132.703 12.728 131.599 12.152C130.495 11.552 129.295 11.252 127.999 11.252C126.703 11.252 125.503 11.552 124.399 12.152C123.295 12.728 122.407 13.616 121.735 14.816C121.087 15.992 120.763 17.444 120.763 19.172C120.763 20.9 121.087 22.364 121.735 23.564C122.407 24.74 123.283 25.628 124.363 26.228C125.467 26.804 126.667 27.092 127.963 27.092Z" fill="#0069FE"/>
</svg>
