<svg width="375" height="392" viewBox="0 0 375 392" fill="none" xmlns="http://www.w3.org/2000/svg">
<path d="M142.539 352.214H161.421V320.668H142.539V352.214Z" fill="#B2B2B2"/>
<path d="M161.348 352.214H180.23V320.668H161.348V352.214Z" fill="#D1D1D1"/>
<path d="M163.044 290.84L165.318 301.729L158.215 302.644C158.215 302.644 157.599 291.328 158.215 291.267C158.831 291.212 163.044 290.84 163.044 290.84Z" fill="#A8754B"/>
<path d="M156.395 279.898C156.395 279.898 163.491 280.898 164.766 291.696C164.766 291.696 162.504 294.129 159.62 293.379L156.395 279.898Z" fill="#FFD686"/>
<path d="M153.317 279.529C153.317 279.529 146.403 278.846 143.971 283.717C141.532 288.589 148.641 293.662 146.202 304.825L161.53 304.014V294.168C161.53 294.168 164.322 290.095 160.365 285.729C160.365 285.729 160.128 279.096 153.317 279.529Z" fill="#FFD686"/>
<path d="M176.119 306.404C176.119 306.404 181.088 304.562 182.423 309.385C183.758 314.202 189.294 345.693 189.294 345.693H184.856L182.246 333.176C182.246 333.176 178.564 329.072 177.436 320.36L161.949 318.512L176.119 306.404Z" fill="#B5845B"/>
<path d="M165.964 317.929C165.964 317.929 168.598 317.856 173.274 316.368C177.95 314.874 181.286 316.453 179.444 321.721C177.603 326.983 168.299 351.371 168.299 351.371L164.775 350.316L167.817 334.525C167.817 334.525 168.531 326.69 171.835 322.099C171.835 322.099 164.885 322.447 162.507 322.081C160.141 321.721 165.964 317.929 165.964 317.929Z" fill="#A8754B"/>
<path d="M146.204 304.823C146.204 304.823 140.582 311.89 147.344 318.828C147.344 318.828 150.825 322.883 166.171 322.248C166.171 322.248 170.195 308.664 178.756 305.012L161.038 302.641L146.204 304.823Z" fill="#0C2C40"/>
<path d="M153.696 261.487C153.696 261.487 155.525 254.043 149.191 254C144.502 253.97 143.106 259.573 148.855 263.322L153.696 261.487Z" fill="#190D08"/>
<path d="M148.64 264.676C148.64 264.676 147.494 261.749 150.762 260.267C154.03 258.786 155.072 262.292 155.072 262.292L148.64 264.676Z" fill="#FD6C75"/>
<path d="M161.056 271.337C161.056 271.337 165.775 268.545 160.672 262.936C157.483 259.43 151.898 259.625 148.789 263.1C145.679 266.576 148.612 272.703 148.612 272.703L150.728 269.185L152.581 266.454L155.233 265.393L157.312 265.539L159.074 265.765L160.495 266.362L161.056 271.337Z" fill="#27160C"/>
<path d="M157.201 273.591L151.898 272.91L150.824 281.268L156.128 281.949L157.201 273.591Z" fill="#B5845B"/>
<path d="M151.344 275.398C151.344 275.398 151.917 278.441 154.362 279.057C155.124 279.246 155.953 279.026 156.416 278.398C156.544 278.227 156.636 278.032 156.666 277.813C156.782 276.935 154.465 275.398 154.465 275.398H151.344Z" fill="#A8754B"/>
<path d="M155.082 277.559L154.807 277.523C151.765 277.132 149.613 274.346 150.003 271.304L150.314 268.889C150.704 265.847 153.49 263.695 156.533 264.085L156.807 264.121C159.849 264.512 162.002 267.298 161.611 270.34L161.3 272.755C160.91 275.797 158.124 277.949 155.082 277.559Z" fill="#B5845B"/>
<path d="M150.598 270.703C150.598 270.703 154.415 269.459 154.317 265.173C154.317 265.173 154.561 261.978 151.22 264.935C147.879 267.892 150.598 270.703 150.598 270.703Z" fill="#27160C"/>
<path d="M151.44 271.869C151.306 272.893 150.373 273.619 149.343 273.485C148.318 273.351 147.593 272.418 147.727 271.393C147.861 270.369 148.794 269.644 149.824 269.778C150.849 269.906 151.574 270.845 151.44 271.869Z" fill="#B5845B"/>
<path d="M152.666 268.551L152.495 269.904C152.105 271.813 151.3 271.233 151.008 270.41L152.666 268.551Z" fill="#27160C"/>
<path d="M162.197 267.865C162.197 267.865 158.301 270.786 152.589 266.457C148.65 263.475 154.607 262.402 154.607 262.402L160.161 263.549L162.197 267.865Z" fill="#27160C"/>
<path d="M150.832 281.259C150.832 281.259 154.167 287.21 156.533 285.38C159.087 283.405 153.32 279.527 153.32 279.527L150.832 281.259Z" fill="#B5845B"/>
<path d="M152.304 293.383C152.304 293.383 154.365 297.181 155.773 300.163L170.796 299.297C170.796 299.297 173.778 296.858 176.113 298.919L173.808 301.687L154.999 305.851C154.279 306.01 153.529 305.802 152.999 305.302C151.335 303.729 147.713 300.065 145.957 296.328L152.304 293.383Z" fill="#B5845B"/>
<path d="M194.003 287.52H175.541C174.932 287.52 174.407 287.946 174.285 288.538L170.81 304.847C170.639 305.646 171.249 306.402 172.066 306.402H190.839C191.454 306.402 191.985 305.963 192.101 305.359L195.271 289.05C195.417 288.257 194.808 287.52 194.003 287.52Z" fill="#B2B2B2"/>
<path d="M195.066 287.52H176.604C175.994 287.52 175.47 287.946 175.348 288.538L171.873 304.847C171.702 305.646 172.312 306.402 173.129 306.402H191.901C192.517 306.402 193.047 305.963 193.163 305.359L196.334 289.05C196.48 288.257 195.876 287.52 195.066 287.52Z" fill="#D1D1D1"/>
<path d="M171.298 305.012H158.683C158.299 305.012 157.988 305.323 157.988 305.707C157.988 306.091 158.299 306.402 158.683 306.402H171.542L171.298 305.012Z" fill="#B2B2B2"/>
<path d="M183.633 296.539C183.633 297.649 184.535 298.551 185.645 298.551C186.754 298.551 187.657 297.649 187.657 296.539C187.657 295.43 186.754 294.527 185.645 294.527C184.535 294.527 183.633 295.424 183.633 296.539Z" fill="white"/>
<path d="M145.958 281.344C145.708 281.453 137.435 285.52 145.574 298.122C145.574 298.122 150.775 298.208 153.787 294.336C153.793 294.336 152.793 278.344 145.958 281.344Z" fill="#FFD686"/>
<path d="M163.816 349.623C163.925 349.294 164.285 349.172 164.529 349.385C165.005 349.806 165.858 350.324 167.114 350.196C168.425 350.068 168.913 349.294 169.102 348.739C169.199 348.446 169.48 348.3 169.73 348.422L177.668 352.409C178.15 352.653 178.528 353.105 178.711 353.665C178.887 354.196 178.534 354.763 178.034 354.751L164.322 354.373C163.779 354.361 163.371 353.83 163.413 353.214L163.639 350.19C163.645 350.141 163.651 350.093 163.669 350.044L163.816 349.623Z" fill="#FD6C75"/>
<path d="M183.833 344.407C183.857 344.059 184.168 343.846 184.455 343.992C185.022 344.273 185.979 344.547 187.162 344.096C188.387 343.626 188.662 342.755 188.698 342.169C188.717 341.864 188.948 341.645 189.223 341.7L197.929 343.474C198.46 343.584 198.941 343.919 199.271 344.413C199.581 344.876 199.386 345.517 198.905 345.632L185.571 348.858C185.046 348.986 184.51 348.583 184.394 347.974L183.821 344.998C183.809 344.95 183.809 344.901 183.809 344.846L183.833 344.407Z" fill="#FD6C75"/>
<path d="M58.082 377.192L59.767 387.054L64.6518 387.526L62.9591 376.512L58.082 377.192Z" fill="#FCC9A7"/>
<path d="M59.0922 386.377C59.1927 386.03 59.5559 385.898 59.8187 386.107C60.3211 386.524 61.2254 387.027 62.5162 386.849C63.861 386.671 64.3402 385.852 64.518 385.28C64.6108 384.979 64.8967 384.816 65.1518 384.932L74.2953 388.766C74.8055 388.998 75.2074 389.454 75.4161 390.026C75.617 390.567 75.2692 391.162 74.7591 391.17L59.7801 391.262C59.2236 391.262 58.7753 390.737 58.8062 390.095L58.9376 386.973C58.9376 386.919 58.9453 386.872 58.9608 386.818L59.0922 386.377Z" fill="#1F252A"/>
<path d="M38.3339 331.816H36.3398V389.963H38.3339V331.816Z" fill="#2A272D"/>
<path d="M34.0117 319.859L48.2951 346.092L57.3305 382.535H65.5311L59.6801 342.034L34.0117 319.859Z" fill="#232322"/>
<path d="M45.8003 330.959H27.9461C25.3877 330.959 23.3086 328.887 23.3086 326.321C23.3086 323.763 25.38 321.684 27.9461 321.684H45.8003C48.3587 321.684 50.4378 323.763 50.4378 326.321C50.4378 328.887 48.3587 330.959 45.8003 330.959Z" fill="#FFEEE3"/>
<path d="M45.9086 330.957H28.75V332.673H45.9086V330.957Z" fill="#2A272D"/>
<path d="M45.9086 375.848H28.75V377.564H45.9086V375.848Z" fill="#2A272D"/>
<path d="M36.4078 272.35C32.9683 271.933 29.7066 274.012 28.3927 277.212C27.2797 279.909 26.3522 283.82 27.3415 288.357C30.3558 302.246 28.555 311.853 28.555 311.853H44.8866L44.8248 292.94C44.8248 292.94 45.9532 290.738 46.5638 287.855C47.4218 283.82 47.0972 283.294 44.7398 279.724L39.7236 273.602C39.7313 273.602 38.6106 272.613 36.4078 272.35Z" fill="#FFD686"/>
<path d="M66.1118 285.755C67.2016 283.575 69.845 282.694 72.0246 283.784C74.2043 284.873 75.0854 287.517 73.9956 289.696C72.9058 291.876 70.2624 292.757 68.0828 291.667C65.9032 290.585 65.022 287.934 66.1118 285.755Z" fill="#FCC9A7"/>
<path d="M67.0784 284.48L58.7773 292.364L61.9308 295.873L68.4001 290.331L67.0784 284.48Z" fill="#FCC9A7"/>
<path d="M30.8135 284.585L45.8311 307.409C46.4108 308.283 47.6011 308.491 48.4436 307.858L66.5683 293.621L62.897 287.321L48.8764 298.034L39.0759 279.909C37.7697 277.189 34.2993 276.362 31.9033 278.186C29.9092 279.7 29.4377 282.498 30.8135 284.585Z" fill="#FFD686"/>
<path d="M37.3524 275.808C36.4018 275.801 35.3892 275.407 34.6395 275.02C33.8975 274.641 33.4338 273.861 33.4415 273.026L33.5961 257.691L40.2972 257.722L40.1426 272.864C40.1349 274.603 38.8828 275.816 37.3524 275.808Z" fill="#FCC9A7"/>
<path d="M40.1889 268.606L37.4219 264.688C37.4219 264.688 35.7292 269.163 40.1735 270.538L40.1889 268.606Z" fill="#F2C09E"/>
<path d="M46.2241 257.75C46.2009 262.318 42.4832 265.997 37.9153 265.974C33.3474 265.951 29.6683 262.233 29.6915 257.665C29.7147 253.097 33.4324 249.418 38.0003 249.442C42.5605 249.465 46.2396 253.182 46.2241 257.75Z" fill="#FCC9A7"/>
<path d="M40.7744 268.656C38.6102 268.648 36.8557 266.878 36.8712 264.714L36.8944 259.056L46.2157 257.75L46.1925 263.292C46.1771 266.267 43.7578 268.671 40.7744 268.656Z" fill="#FCC9A7"/>
<path d="M45.9706 259.598L47.7638 262.264C48.0188 262.697 47.6865 263.23 47.1532 263.23L45.0586 263.617L45.9706 259.598Z" fill="#FCC9A7"/>
<path d="M36.9015 261.318L40.4183 261.195C40.4183 261.195 40.7197 258.142 41.4076 257.407C42.0955 256.673 42.4433 253.412 42.4433 253.412C42.4433 253.412 40.7815 255.444 40.2946 257.547L47.6604 257.361C47.6604 257.361 48.758 248.426 37.6049 247.993C26.444 247.561 26.7532 258.119 28.9482 260.213C30.695 261.883 33.5239 265.979 33.5239 265.979C33.5239 265.979 33.3925 261.442 36.9015 261.318Z" fill="#4C1827"/>
<path d="M39.4545 260.235C39.5009 261.541 38.4806 262.631 37.1821 262.677C35.8759 262.723 34.7861 261.703 34.732 260.405C34.6856 259.098 35.7059 258.009 37.0043 257.955C38.3106 257.908 39.4004 258.928 39.4545 260.235Z" fill="#FCC9A7"/>
<path d="M32.6362 246.85C32.9917 249.78 30.9126 252.439 27.991 252.802C25.0617 253.157 22.4028 251.078 22.0396 248.149C21.684 245.22 23.7632 242.561 26.6925 242.205C29.6219 241.842 32.2807 243.921 32.6362 246.85Z" fill="#4C1827"/>
<path d="M33.7031 274.082C33.7031 274.082 34.3446 276.084 43.295 277.947L39.1367 272.289L33.7031 274.082Z" fill="#FCC9A7"/>
<path d="M37.3355 387.023L25.3398 391.128H49.3156L37.3355 387.023Z" fill="#2A272D"/>
<path d="M38.2378 362.441L31.6758 370.333L36.3905 372.126L42.9758 363.771L38.2378 362.441Z" fill="#FCC9A7"/>
<path d="M31.9019 369.258C32.1338 368.988 32.5202 369.003 32.6748 369.305C32.9685 369.892 33.5869 370.711 34.8467 371.067C36.1529 371.438 37.5828 370.294 37.9693 369.838C38.1702 369.598 38.5026 369.56 38.6881 369.776L46.7186 375.411C47.0896 375.828 47.2751 376.408 47.2442 377.018C47.2133 377.59 46.6568 378 46.1853 377.799L30.2943 373.78C29.7841 373.556 29.5832 372.891 29.8692 372.319L31.5232 369.738C31.5464 369.691 31.5773 369.645 31.6082 369.606L31.9019 369.258Z" fill="#1F252A"/>
<path d="M28.0829 311.855C28.0829 311.855 23.1671 323.047 40.6349 329.006L52.7078 340.221L34.0188 365.248L42.374 368.27L65.0667 344.124C66.744 342.169 66.8134 339.17 65.229 337.129L44.8937 311.848H28.0829V311.855Z" fill="#383635"/>
<path d="M123.137 301.969H63.4609V305.292H123.137V301.969Z" fill="#FFEEE3"/>
<path d="M78.1367 391.144V305.289" stroke="#2A272D" stroke-width="2.2811" stroke-miterlimit="10"/>
<path d="M107.98 391.144V305.289" stroke="#2A272D" stroke-width="2.2811" stroke-miterlimit="10"/>
<path d="M100.931 300.156H76.1055V301.764H100.931V300.156Z" fill="#2A272D"/>
<path d="M100.933 301.774L108.971 278.308L107.286 277.906L99.4102 300.444L100.933 301.774Z" fill="#2A272D"/>
<path d="M264.48 222.953H246.184V251.984H264.48V222.953Z" fill="#B2B2B2"/>
<path d="M246.253 222.953H227.957V251.984H246.253V222.953Z" fill="#D1D1D1"/>
<path d="M236.666 187.75L235.886 203.355L232.219 214.798H238.822L242.251 204.939L243.323 193.734L236.666 187.75Z" fill="#F7EBE7"/>
<path d="M236.486 242.293L237.814 248.479L233.354 249.009L232.086 242.918L236.486 242.293Z" fill="#FCC9A7"/>
<path d="M238.079 247.923C237.966 247.59 237.609 247.47 237.365 247.685C236.889 248.108 236.031 248.626 234.763 248.5C233.447 248.37 232.953 247.596 232.763 247.036C232.661 246.744 232.382 246.595 232.132 246.72L224.147 250.733C223.665 250.977 223.284 251.43 223.094 251.995C222.915 252.525 223.272 253.097 223.772 253.085L237.567 252.704C238.109 252.692 238.526 252.156 238.478 251.537L238.252 248.5C238.246 248.453 238.24 248.399 238.222 248.352L238.079 247.923Z" fill="#1F252A"/>
<path d="M236.408 212.382H226.054C226.054 212.382 219.749 212.031 219.374 217.205C218.999 222.379 228.62 237.18 230.127 245.087L238.784 244.372L232.55 222.873L248.054 222.962C249.203 222.968 250.346 222.801 251.43 222.426C254.448 221.378 259.057 219.878 256.544 211.566L236.408 212.382Z" fill="#092330"/>
<path d="M244.396 242.316L246.504 249.711L242.044 250.241L239.996 242.942L244.396 242.316Z" fill="#FCC9A7"/>
<path d="M246.771 249.15C246.658 248.816 246.301 248.697 246.056 248.911C245.58 249.334 244.723 249.852 243.455 249.727C242.139 249.596 241.645 248.822 241.454 248.262C241.353 247.971 241.073 247.822 240.823 247.947L232.839 251.96C232.357 252.204 231.975 252.656 231.785 253.222C231.606 253.752 231.964 254.323 232.464 254.312L246.497 253.93C247.039 253.919 247.456 253.383 247.408 252.764L246.938 249.727C246.932 249.679 246.926 249.626 246.908 249.578L246.771 249.15Z" fill="#1F252A"/>
<path d="M248.779 181.613C249.012 181.84 259.401 184.489 259.401 184.489L257.18 190.389L245.82 189.532L248.779 181.613Z" fill="#F7EBE7"/>
<path d="M244.491 183.039C244.491 183.039 237.722 185.51 236.668 187.749C237.031 190.91 238.145 193.953 239.978 196.554C242.229 199.746 245.009 205.229 244.497 212.38H264.068C264.068 212.38 263.014 192.262 257.221 184.539L244.491 183.039Z" fill="#F7EBE7"/>
<path d="M246.712 186.228C248.635 185.835 249.873 183.96 249.48 182.037L248.331 176.41L241.371 177.833L242.52 183.46C242.913 185.383 244.789 186.621 246.712 186.228Z" fill="#FCC9A7"/>
<path d="M248.806 178.379C248.806 178.379 248.074 182.94 244.525 183.213C241.417 183.452 241.715 178.956 241.715 178.956L248.806 178.379Z" fill="#F4BE9A"/>
<path d="M244.806 180.712L245.42 180.569C248.498 179.855 250.415 176.783 249.7 173.711L248.891 170.204C248.176 167.125 245.104 165.208 242.032 165.923L241.418 166.066C238.34 166.78 236.423 169.852 237.138 172.925L237.947 176.431C238.662 179.51 241.734 181.427 244.806 180.712Z" fill="#FCC9A7"/>
<path d="M247.772 175.172C247.629 175.416 247.492 175.786 247.445 176.345C247.391 177.054 247.034 177.726 246.439 178.119C244.73 179.251 243.426 176.387 240.901 176.893C240.901 176.893 239.913 177.042 239.717 178.143C239.52 179.239 238.145 177.322 237.841 176.012C237.537 174.702 237.383 182.496 243.599 181.835C243.599 181.835 246.736 181.733 248.85 178.536C249.082 178.185 249.219 177.774 249.231 177.351C249.249 176.726 249.159 175.78 248.564 175.101C248.356 174.851 247.939 174.886 247.772 175.172Z" fill="#1C2226"/>
<path d="M247.776 173.4C247.776 173.4 245.091 172.513 245.544 168.589C245.544 168.589 238.875 174.9 233.934 170.268C233.934 170.268 236.142 169.679 237.053 168.167C238.715 165.41 243.49 161.611 247.312 166.005C247.312 166.005 251.962 165.285 250.628 172.447L247.776 173.4Z" fill="#1C2226"/>
<path d="M247.776 173.401C248.032 174.496 249.128 175.181 250.223 174.931C251.325 174.675 252.004 173.58 251.753 172.484C251.497 171.388 250.402 170.704 249.306 170.954C248.205 171.21 247.52 172.305 247.776 173.401Z" fill="#FCC9A7"/>
<path d="M244.384 186.012L247.26 186.065L245.247 190.233L243.074 186.238L244.384 186.012Z" fill="#0C2C40"/>
<path d="M249.727 181.8L246.023 186.122L248.435 188.891L252.87 182.794C252.87 182.794 251.733 180.966 249.727 181.8Z" fill="#FFF7F3"/>
<path d="M244.386 186.012L242.254 188.417L240.754 184.666C240.754 184.666 241.147 182.981 242.373 183.303L244.386 186.012Z" fill="#FFF7F3"/>
<path d="M245.169 188.884C245.169 188.884 242.388 196.136 243.079 206.425L245.818 208.925L249.015 205.847L245.568 188.414L245.169 188.884Z" fill="#0C2C40"/>
<path d="M250.366 206.105L244.412 208.064L244.02 211.559L251.914 209.201L250.366 206.105Z" fill="#FCC9A7"/>
<path d="M245.301 210.375C245.301 212.417 243.646 214.078 241.598 214.078C239.556 214.078 237.895 212.423 237.895 210.375C237.895 208.333 239.55 206.672 241.598 206.672C243.64 206.672 245.301 208.327 245.301 210.375Z" fill="#FCC9A7"/>
<path d="M244.491 212.376H234.143C234.143 212.376 227.838 212.025 227.463 217.199C227.088 222.373 237.418 238.127 238.924 246.028L247.581 245.313L240.639 222.861L256.143 222.95C257.292 222.956 258.435 222.79 259.519 222.415C262.537 221.367 267.146 219.866 264.633 211.555L244.491 212.376Z" fill="#0C2C40"/>
<path d="M213.277 194.086H231.168C231.757 194.086 232.263 194.497 232.389 195.074L235.758 210.876C235.925 211.65 235.33 212.382 234.538 212.382H216.349C215.753 212.382 215.241 211.96 215.128 211.376L212.056 195.574C211.901 194.8 212.491 194.086 213.277 194.086Z" fill="#B2B2B2"/>
<path d="M212.245 194.086H230.131C230.72 194.086 231.226 194.497 231.351 195.074L234.721 210.876C234.888 211.65 234.298 212.382 233.501 212.382H215.318C214.722 212.382 214.21 211.96 214.097 211.376L211.025 195.574C210.87 194.8 211.459 194.086 212.245 194.086Z" fill="#D1D1D1"/>
<path d="M235.269 211.031H247.493C247.868 211.031 248.165 211.335 248.165 211.704C248.165 212.079 247.862 212.377 247.493 212.377H235.031L235.269 211.031Z" fill="#B2B2B2"/>
<path d="M223.32 202.818C223.32 203.896 222.45 204.765 221.373 204.765C220.295 204.765 219.426 203.89 219.426 202.818C219.426 201.74 220.301 200.871 221.373 200.871C222.45 200.871 223.32 201.74 223.32 202.818Z" fill="white"/>
<path d="M255.133 190.11L261.67 200.667L246.023 206.251L248.167 210.883C248.167 210.883 261.545 209.383 268.011 204.4C268.606 203.941 268.904 203.197 268.803 202.453C268.499 200.071 267.201 194.29 261.67 186.074C260.545 184.401 258.306 183.894 256.562 184.907C254.746 185.955 254.109 188.277 255.133 190.11Z" fill="#F7EBE7"/>
<path d="M250.184 204.765L261.669 200.669L255.923 191.387" stroke="#EADDD8" stroke-width="0.7599" stroke-miterlimit="10" stroke-linecap="round" stroke-linejoin="round"/>
<path d="M242.406 201.267L239.578 193.801" stroke="#EADDD8" stroke-width="0.7599" stroke-miterlimit="10" stroke-linecap="round" stroke-linejoin="round"/>
<path d="M250.367 210.571C250.367 210.571 259.155 209.47 263.585 206.934" stroke="#EADDD8" stroke-width="0.7599" stroke-miterlimit="10" stroke-linecap="round" stroke-linejoin="round"/>
<path d="M323.554 335.176L319.604 344.667L313.164 341.246L317.094 331.938L323.554 335.176Z" fill="#FCC9A7"/>
<path d="M321.772 344.114C321.772 343.544 321.282 343.174 320.792 343.384C319.832 343.794 318.252 344.144 316.362 343.294C314.402 342.414 314.042 340.964 314.032 340.014C314.032 339.514 313.672 339.134 313.222 339.204L298.852 341.274C297.982 341.404 297.162 341.904 296.582 342.684C296.032 343.414 296.292 344.474 297.062 344.714L318.512 351.234C319.352 351.494 320.272 350.884 320.522 349.904L321.732 345.104C321.752 345.024 321.762 344.944 321.762 344.864L321.772 344.114Z" fill="#1F252A"/>
<path d="M328.312 243.5L331.783 265.76L349.323 297.29L379.522 323.55L386.562 311.1L362.613 288.76L348.562 243.88L328.312 243.5Z" fill="#092330"/>
<path d="M356.814 242.227C356.814 242.227 360.304 248.826 354.884 259.367L338.054 291.487L325.224 340.167L312.484 335.717L321.634 286.487L337.854 248.067L328.314 243.497L356.814 242.227Z" fill="#0C2C40"/>
<path d="M320.122 179.596C322.342 182.026 326.112 182.196 328.532 179.986C330.962 177.766 331.132 173.996 328.922 171.566C326.702 169.136 322.942 168.966 320.502 171.176C318.072 173.406 317.902 177.166 320.122 179.596Z" fill="#FCC9A7"/>
<path d="M315.363 182.654L320.543 176.414L324.673 180.564L319.813 186.514L315.363 182.654Z" fill="#FCC9A7"/>
<path d="M327.053 168.052L322.303 174.412C321.683 175.242 321.703 176.392 322.353 177.192L326.203 181.942C327.103 183.052 328.783 183.062 329.693 181.972L335.063 175.582C335.803 174.702 335.763 173.402 334.973 172.562L330.503 167.842C329.543 166.832 327.893 166.922 327.053 168.052Z" fill="#1C2226"/>
<path d="M331.963 190.47L313.133 199.92L323.473 183.97L316.653 178.07L295.093 207.61C293.133 210.15 293.893 213.85 296.703 215.4C298.133 216.19 299.853 216.27 301.353 215.61L329.273 204.52L331.963 190.47Z" fill="#F7ECE7"/>
<path d="M325.223 199.542C325.223 199.542 328.553 225.652 328.313 243.502C328.313 243.502 338.303 247.902 359.483 241.472L354.243 192.922L344.043 189.492L331.963 190.472L325.223 199.542Z" fill="#F7ECE7"/>
<path d="M335.384 187.927L335.644 189.627C335.664 189.747 335.624 189.877 335.534 189.967L332.924 192.737C332.684 192.987 332.264 192.847 332.224 192.507L331.954 190.467C331.934 190.337 331.984 190.207 332.084 190.117L334.694 187.687C334.944 187.467 335.344 187.597 335.384 187.927Z" fill="#FCF3F0"/>
<path d="M338.873 192.324C341.973 192.074 344.283 189.344 344.033 186.244L343.283 177.164L332.043 178.084L334.363 190.634C334.733 192.234 335.763 192.574 338.873 192.324Z" fill="#FCC9A7"/>
<path d="M343.661 180.338C343.661 180.338 341.241 187.218 336.331 186.368C331.821 185.588 332.041 178.078 332.041 178.078L343.661 180.338Z" fill="#F4BE9A"/>
<path d="M337.113 183.87L338.113 183.76C343.093 183.22 346.703 178.74 346.163 173.76L345.553 168.08C345.013 163.1 340.533 159.49 335.553 160.03L334.553 160.14C329.573 160.68 325.963 165.16 326.503 170.14L327.113 175.82C327.653 180.81 332.133 184.41 337.113 183.87Z" fill="#FCC9A7"/>
<path d="M337.113 183.87L338.113 183.76C343.093 183.22 346.703 178.74 346.163 173.76L345.553 168.08C345.013 163.1 340.533 159.49 335.553 160.03L334.553 160.14C329.573 160.68 325.963 165.16 326.503 170.14L327.113 175.82C327.653 180.81 332.133 184.41 337.113 183.87Z" fill="#FCC9A7"/>
<path d="M345.962 171.961C345.282 171.891 342.432 174.051 341.692 173.111C340.672 171.811 339.742 169.441 341.062 166.981C341.282 166.571 341.342 166.091 341.202 165.641C340.942 164.831 340.242 163.891 338.312 164.571C335.222 165.661 328.272 169.161 326.262 164.151C323.722 157.841 343.702 159.601 343.702 159.601L348.252 166.181L346.302 175.561L345.962 171.961Z" fill="#1C2226"/>
<path d="M343.183 172.911C343.373 174.691 344.973 175.981 346.753 175.781C348.533 175.591 349.823 173.991 349.623 172.211C349.433 170.431 347.833 169.141 346.053 169.341C344.273 169.541 342.993 171.131 343.183 172.911Z" fill="#FCC9A7"/>
<path d="M337.852 194.249L340.402 233.559L335.652 238.019L332.832 233.699L335.652 193.469L337.852 194.249Z" fill="#0C2C40"/>
<path d="M334.051 191.541L334.441 191.001L334.341 190.531H339.961L340.401 192.001L336.661 195.301L334.051 191.541Z" fill="#0C2C40"/>
<path d="M343.672 185.711L338.352 189.331C337.752 189.741 337.672 190.601 338.192 191.111L342.372 195.221C342.842 195.681 343.612 195.661 344.052 195.161L348.262 190.431C348.672 189.971 348.652 189.261 348.212 188.831L345.132 185.821C344.742 185.451 344.132 185.401 343.672 185.711Z" fill="#FCF3F0"/>
<path d="M321.132 187.581L313.172 182.781" stroke="#EADDD8" stroke-width="0.7599" stroke-miterlimit="10" stroke-linecap="round" stroke-linejoin="round"/>
<path d="M335.632 225.278L332.842 255.108C332.732 256.228 333.502 257.248 334.612 257.468L368.822 264.008C370.082 264.248 371.272 263.368 371.412 262.098L374.542 233.748C374.662 232.648 373.942 231.628 372.862 231.368L338.312 223.358C337.022 223.048 335.762 223.958 335.632 225.278Z" fill="#AFAFAF"/>
<path d="M338.061 225.808L335.271 255.638C335.171 256.758 335.931 257.778 337.041 257.998L371.251 264.538C372.511 264.778 373.701 263.898 373.841 262.628L376.971 234.278C377.091 233.178 376.371 232.158 375.291 231.898L340.741 223.878C339.441 223.578 338.181 224.488 338.061 225.808Z" fill="#D1D1D1"/>
<path d="M350.971 253.265C348.221 250.745 343.941 250.935 341.421 253.685C338.901 256.435 339.091 260.715 341.841 263.235C344.591 265.755 348.871 265.565 351.391 262.815C353.911 260.055 353.721 255.785 350.971 253.265Z" fill="#FCC9A7"/>
<path d="M356.042 249.324L350.822 256.904L345.742 252.624L350.622 245.414L356.042 249.324Z" fill="#FCC9A7"/>
<path d="M354.253 192.922C354.253 192.922 361.903 193.692 364.123 206.202L372.923 224.482C373.163 225.282 373.323 226.102 373.403 226.922L354.893 253.512L346.543 248.562L361.513 224.562L352.423 210.172L354.253 192.922Z" fill="#F7ECE7"/>
<path d="M349.262 244.969L357.692 249.489" stroke="#EADDD8" stroke-width="0.7599" stroke-miterlimit="10" stroke-linecap="round" stroke-linejoin="round"/>
<path d="M356.874 217.224L351.484 207.844" stroke="#EADDD8" stroke-width="0.7599" stroke-miterlimit="10" stroke-linecap="round" stroke-linejoin="round"/>
<path d="M328.321 166.38C324.501 164.65 325.301 160.19 326.171 158.78C326.171 158.78 326.341 161.29 328.051 160.71C328.051 160.71 327.821 156.97 332.831 156C332.831 156 330.981 159.36 337.571 158.72C345.661 157.93 346.131 163.05 345.681 169.41L343.201 167.63L341.281 163.2H334.731L328.321 166.38Z" fill="#1C2226"/>
<path d="M271.785 74.418V116.607" stroke="#2A272D" stroke-width="1.9882" stroke-miterlimit="10"/>
<path d="M241.27 74.418V116.607" stroke="#2A272D" stroke-width="1.9882" stroke-miterlimit="10"/>
<path d="M289.83 87.4456C289.83 87.4456 283.974 86.1181 283.093 89.9303C282.331 93.2014 290.296 93.0762 290.296 93.0762L307.809 93.1814C307.809 93.1814 314.406 93.9428 317.667 86.3335C320.928 78.7243 324.069 58.797 324.069 58.797C324.069 58.797 324.54 56.0568 322.256 55.6561C319.571 55.1852 319.045 60.9861 319.045 60.9861C319.045 60.9861 314.987 85.5821 309.096 86.7844C308.19 86.9697 307.468 87.656 306.541 87.646L289.83 87.4456Z" fill="#FFEEE3"/>
<path d="M274.267 67.575L268.737 67.1943C268.286 67.1642 267.855 67.3696 267.6 67.7353L264.509 72.4091L267.139 72.5343L268.622 70.255C268.622 70.255 272.895 71.322 274.473 70.255L274.267 67.575Z" fill="#F2C09E"/>
<path d="M296.546 52.4336L289.157 66.1643L273.803 66.6552V71.7047L290.018 72.416C292.162 72.5112 294.196 71.4843 295.399 69.7059L302.777 56.4561L296.546 52.4336Z" fill="#EFC375"/>
<path d="M273.802 66.6528V71.7022L275.516 71.7774V66.5977L273.802 66.6528Z" fill="#F7E5DA"/>
<path d="M281.848 107.353L280.981 113.424L276.613 113.153L277.239 106.887L281.848 107.353Z" fill="#FCC9A7"/>
<path d="M281.958 112.807C281.863 112.521 281.522 112.406 281.277 112.582C280.796 112.922 279.949 113.328 278.732 113.173C277.465 113.012 277.019 112.336 276.864 111.86C276.783 111.61 276.513 111.474 276.267 111.57L268.393 114.655C267.912 114.841 267.531 115.211 267.326 115.682C267.135 116.123 267.451 116.619 267.937 116.629L281.272 116.824C281.798 116.835 282.219 116.399 282.199 115.873L282.103 113.298C282.103 113.253 282.093 113.213 282.078 113.173L281.958 112.807Z" fill="#1F252A"/>
<path d="M295.119 51.2578L293.867 53.2666C293.787 53.4569 293.751 53.9178 294.097 54.0881L294.583 54.4388L295.625 52.8458L295.119 51.2578Z" fill="#FFEEE3"/>
<path d="M297.455 53.3816L297.85 53.1912C299.153 52.555 299.694 50.9821 299.058 49.6796L294.83 41.0234L290.136 43.3177L295.02 53.0109C295.541 54.0879 296.377 53.9076 297.455 53.3816Z" fill="#FCC9A7"/>
<path d="M286.632 45.0272C288.01 47.8425 291.411 49.0147 294.227 47.6371C297.042 46.2595 298.214 42.8632 296.837 40.0429C295.459 37.2276 292.063 36.0554 289.242 37.433C286.422 38.8106 285.255 42.2119 286.632 45.0272Z" fill="#FCC9A7"/>
<path d="M293.487 50.6237C294.825 49.9725 295.381 48.3545 294.724 47.017L292.34 42.1328L286.589 44.9431L288.533 48.9255C289.434 50.759 291.654 51.5254 293.487 50.6237Z" fill="#FCC9A7"/>
<path d="M287.334 46.0938L287.024 48.2778C286.999 48.6235 287.364 48.8489 287.685 48.6936L289.098 48.3079L287.334 46.0938Z" fill="#FCC9A7"/>
<path d="M292.312 45.0016C292.312 45.0016 290.324 45.1318 289.998 42.0611C289.998 42.0611 286.542 44.2652 285.134 43.3886C285.134 43.3886 284.703 34.7023 291.882 35.0079C299.06 35.3134 299.621 43.0629 299.621 43.0629L295.594 46.6998L292.312 45.0016Z" fill="#1C2226"/>
<path d="M292.028 45.1281C292.403 45.9046 293.34 46.2252 294.116 45.8445C294.888 45.4637 295.213 44.532 294.833 43.7555C294.457 42.9791 293.52 42.6585 292.744 43.0392C291.972 43.4199 291.652 44.3517 292.028 45.1281Z" fill="#FCC9A7"/>
<path d="M296.41 43.9727L297.477 46.4623C297.477 46.4623 295.132 48.3408 293.95 45.9213L295.653 45.4404L296.41 43.9727Z" fill="#1C2226"/>
<path d="M290 42.0581C290 42.0581 285.316 45.6749 283.468 42.6442C281.995 40.2247 283.633 38.6567 285.998 39.0475C287.019 39.2178 287.525 38.5265 288.327 37.9805L290 42.0581Z" fill="#1C2226"/>
<path d="M294.207 55.6528C294.207 55.6528 294.312 53.4437 295.013 52.6773C295.715 51.9108 299.452 49.7969 299.452 49.7969C299.452 49.7969 304.827 51.3548 308.128 57.4963C310.698 62.2803 313.117 74.3879 313.117 74.3879L297.608 76.6371C296.271 67.5902 293.766 63.4675 294.207 55.6528Z" fill="#FFD686"/>
<path d="M299.19 49.3704L299.836 49.6609C300.066 49.7661 300.116 50.0767 299.926 50.247L295.828 53.8939C295.663 54.0442 295.402 53.9991 295.287 53.8087L294.826 53.0122C294.741 52.8619 294.776 52.6716 294.912 52.5614L298.829 49.4255C298.929 49.3353 299.069 49.3153 299.19 49.3704Z" fill="#FFEEE3"/>
<path d="M275.978 68.3992L270.448 68.0185C269.997 67.9885 269.566 68.1938 269.311 68.5595L266.475 72.5921L269.125 72.9327L270.332 71.0742C270.332 71.0742 274.606 72.1412 276.184 71.0742L275.978 68.3992Z" fill="#FCC9A7"/>
<path d="M299.686 53.457L291.341 67.5384L275.511 67.9742V72.5277L292.593 73.2741C294.196 73.3442 295.724 72.5778 296.626 71.2453L305.918 57.4795L299.686 53.457Z" fill="#FFD686"/>
<path d="M275.509 67.9727V72.5212L277.223 72.5963V67.9727H275.509Z" fill="#FFEEE3"/>
<path d="M313.115 74.3867L282.608 78.81C280.273 79.1506 278.47 81.0392 278.245 83.3886L275.97 109.372L282.783 109.813L286.059 87.2909L305.215 87.7868C310.415 87.7868 314.402 83.1682 313.646 78.0235L313.115 74.3867Z" fill="#54585A"/>
<path d="M259.043 72.418H275.133V73.4599H259.043V72.418Z" fill="#2A272D"/>
<path d="M259.039 73.4601L253.835 58.2566L254.927 57.9961L260.031 72.5985L259.039 73.4601Z" fill="#2A272D"/>
<path d="M293.737 50.4881C293.737 50.4881 295.185 49.6315 295.185 47.8281C295.185 47.8281 296.087 49.7818 294.248 51.5L293.737 50.4881Z" fill="#F2C09E"/>
<path d="M317.487 117.589C317.246 117.589 317.026 117.424 316.961 117.179L308.996 85.7747C308.335 83.175 306.005 81.3566 303.32 81.3566C300.715 81.3566 298.401 83.1048 297.69 85.6094C294.904 95.4228 288.422 116.833 288.357 117.048C288.272 117.334 287.966 117.499 287.681 117.409C287.395 117.324 287.23 117.018 287.32 116.733C287.385 116.517 293.868 95.1172 296.648 85.3139C297.489 82.3434 300.234 80.2695 303.325 80.2695C306.506 80.2695 309.271 82.4236 310.053 85.5042L318.018 116.913C318.093 117.204 317.918 117.499 317.627 117.574C317.577 117.584 317.532 117.589 317.487 117.589Z" fill="#1F252A"/>
<path d="M296.618 71.2423L301.402 64.1641" stroke="#EFC375" stroke-width="0.7847" stroke-miterlimit="10" stroke-linecap="round" stroke-linejoin="round"/>
<path d="M236.001 73.457H277.684V75.3355H236.001V73.457Z" fill="#FFEEE3"/>
<path d="M271.785 79.9023H241.268" stroke="#2A272D" stroke-width="1.9882" stroke-miterlimit="10"/>
<path d="M276.811 89.0138L281.395 81.625" stroke="#EFC375" stroke-width="0.7847" stroke-miterlimit="10" stroke-linecap="round" stroke-linejoin="round"/>
<path d="M123.09 81.8735C125.605 80.3584 128.878 81.1645 130.393 83.6896C131.908 86.205 131.102 89.478 128.577 90.9931C126.062 92.5082 122.789 91.7021 121.274 89.1769C119.758 86.6712 120.574 83.3983 123.09 81.8735Z" fill="#FCC9A7"/>
<path d="M129.12 82.2513C128.945 82.1153 119.602 71.1406 119.602 71.1406L115.785 75.7636L124.215 86.4372L129.12 82.2513Z" fill="#FCC9A7"/>
<path d="M121.244 167.817L118.865 178.685L111.348 177.558L113.776 166.836L121.244 167.817Z" fill="#FCC9A7"/>
<path d="M154.947 166.852L155.034 177.982L147.469 178.545L147.449 167.551L154.947 166.852Z" fill="#FCC9A7"/>
<path d="M119.817 176.919C119.662 176.463 119.108 176.268 118.71 176.56C117.933 177.123 116.564 177.783 114.583 177.55C112.524 177.308 111.786 176.22 111.533 175.443C111.397 175.035 110.96 174.821 110.562 174.977L97.8099 180.085C97.0329 180.396 96.4113 180.998 96.0908 181.765C95.78 182.484 96.3045 183.29 97.0912 183.29L118.759 183.446C119.614 183.455 120.293 182.746 120.255 181.892L120.07 177.706C120.07 177.638 120.051 177.57 120.031 177.502L119.817 176.919Z" fill="#0C0C0C"/>
<path d="M146.7 176.919C146.856 176.463 147.419 176.268 147.808 176.56C148.584 177.123 149.954 177.783 151.935 177.55C153.994 177.308 154.723 176.22 154.985 175.443C155.121 175.035 155.558 174.821 155.956 174.977L168.708 180.085C169.485 180.396 170.106 180.998 170.427 181.765C170.738 182.484 170.213 183.29 169.427 183.29L147.759 183.446C146.904 183.455 146.224 182.746 146.263 181.892L146.448 177.706C146.448 177.638 146.467 177.57 146.487 177.502L146.7 176.919Z" fill="#0C0C0C"/>
<path d="M146.605 27.3164L139.875 27.8991L129.172 33.9303V76.8189H157.735V33.9303L146.605 27.3164Z" fill="#54585A"/>
<path d="M144.758 31.6333H142.826C140.825 31.6333 139.203 30.0114 139.203 28.0107V20.7461H148.371V28.0107C148.381 30.0114 146.759 31.6333 144.758 31.6333Z" fill="#FCC9A7"/>
<path d="M139.203 24.445C139.203 24.445 140.631 27.3101 143.875 27.3101C147.118 27.3101 148.371 24.3867 148.371 24.3867L139.203 24.445Z" fill="#F4BE9A"/>
<path d="M143.894 25.6323H143.593C138.921 25.6323 135.075 21.9417 134.891 17.2702L134.726 12.6181C134.531 7.67461 138.484 3.56641 143.428 3.56641H144.059C147.798 3.56641 152.955 7.67461 152.761 12.6181L152.596 17.2702C152.411 21.9417 148.565 25.6323 143.894 25.6323Z" fill="#FCC9A7"/>
<path d="M137.561 16.1492C137.668 17.7225 136.483 19.0822 134.91 19.189C133.336 19.2959 131.977 18.111 131.87 16.5376C131.763 14.9643 132.948 13.6046 134.521 13.4978C136.095 13.4006 137.454 14.5855 137.561 16.1492Z" fill="#FCC9A7"/>
<path d="M155.608 16.1492C155.715 17.7225 154.53 19.0822 152.957 19.189C151.383 19.2959 150.024 18.111 149.917 16.5376C149.81 14.9643 150.995 13.6046 152.568 13.4978C154.142 13.4006 155.501 14.5855 155.608 16.1492Z" fill="#FCC9A7"/>
<path d="M129.17 76.6133L111.406 171.044L121.614 170.947L147.584 76.7978L129.17 76.6133Z" fill="#0C0C0C"/>
<path d="M157.733 76.8164L156.616 171.14H145.826L141.523 77.4088L157.733 76.8164Z" fill="#0C0C0C"/>
<path d="M129.172 33.9258C129.172 33.9258 105.319 48.3191 99.5206 58.3031C98.3843 60.2552 99.8605 62.7804 101.861 63.8196C104.076 64.9753 106.805 64.1886 108.077 62.0423L130.143 49.2417C130.152 49.2417 129.172 38.2477 129.172 33.9258Z" fill="#54585A"/>
<path d="M134.228 7.33575L134.899 14.4838H135.977L136.113 10.735C136.113 10.735 136.676 9.29759 139.191 6.20915C139.191 6.20915 140.833 10.4048 151.001 9.58896L151.594 14.3284L152.643 14.2119L153.196 9.12278C153.565 7.40374 153.691 5.80124 153.381 4.07249C152.749 0.576141 149.904 -1.35656 141.687 1.11031C141.008 1.31426 142.396 1.17829 141.687 1.11031C139.337 0.84808 133.141 0.818944 134.228 7.33575Z" fill="#2E2A33"/>
<path d="M146.331 76.1395L144.02 100.867C143.932 101.799 144.564 102.643 145.486 102.818L173.846 108.237C174.885 108.441 175.876 107.704 175.992 106.655L178.585 83.1516C178.682 82.2387 178.09 81.3938 177.187 81.1801L148.546 74.537C147.477 74.2845 146.438 75.0421 146.331 76.1395Z" fill="#AFAFAF"/>
<path d="M147.905 76.5809L145.594 101.308C145.507 102.241 146.138 103.086 147.061 103.26L175.42 108.68C176.459 108.874 177.45 108.146 177.566 107.097L180.159 83.5931C180.256 82.6801 179.664 81.8352 178.761 81.6215L150.12 74.9784C149.061 74.7259 148.012 75.4835 147.905 76.5809Z" fill="#D1D1D1"/>
<path d="M162.668 101.81C165.484 102.645 167.097 105.608 166.261 108.424C165.426 111.241 162.464 112.853 159.647 112.027C156.831 111.192 155.219 108.23 156.044 105.413C156.889 102.587 159.842 100.975 162.668 101.81Z" fill="#FCC9A7"/>
<path d="M166.465 106.513C166.446 106.29 165.533 91.4688 165.533 91.4688L160.492 92.3817L161.162 105.017L166.465 106.513Z" fill="#FCC9A7"/>
<path d="M157.733 33.9258C157.733 33.9258 165.367 39.3937 165.852 47.1828L168.242 65.3929C168.377 66.4613 168.436 67.5296 168.397 68.6076L167.474 96.3065H156.995L156.801 66.3253L157.733 33.9258Z" fill="#54585A"/>
<path d="M140.679 27.3164C139.863 27.9088 135.93 30.1232 135.93 30.1232C135.93 30.1232 136.037 35.6591 144.369 35.2123C151.702 34.8238 151.654 30.3272 151.654 30.3272L146.594 27.3164H140.679Z" fill="#FCC9A7"/>
<path d="M111.271 54.7148L125.529 77.4994L118.769 83.8997L99.5586 61.4745L111.271 54.7148Z" fill="#54585A"/>
<path d="M156.792 76.5151V66.3174L154.422 47.7188" stroke="#424647" stroke-width="0.7693" stroke-miterlimit="10" stroke-linecap="round" stroke-linejoin="round"/>
<path d="M13.9078 53.5391C13.9078 53.5391 12.3955 53.6583 12.2654 55.7506C12.1353 57.8429 12.1245 63.9138 14.9648 64.2878C17.8051 64.6618 15.7616 54.3142 15.7616 54.3142L13.9078 53.5391Z" fill="#1C2226"/>
<path d="M23.7719 55.4116C23.7719 55.4116 24.921 58.6151 22.6282 59.2005C20.3299 59.7859 20.7581 55.1406 20.7581 55.1406L23.7719 55.4116Z" fill="#1C2226"/>
<path d="M10.7097 75.5372L3.60348 85.5542L3.99917 84.6165L0.71985 99.3168L-2.93359 98.6338L-0.673262 83.7438C-0.624478 83.4186 -0.499807 83.1259 -0.326353 82.8765L-0.277568 82.8061L6.82865 72.7891L10.7097 75.5372Z" fill="#FCC9A7"/>
<path d="M-2.00163 103.824C-3.87169 103.266 -4.92868 101.293 -4.37037 99.4281C-3.81206 97.558 -1.83902 96.501 0.0256181 97.0593C1.89568 97.6176 2.95267 99.5907 2.39436 101.455C1.83605 103.32 -0.131576 104.382 -2.00163 103.824Z" fill="#FCC9A7"/>
<path d="M26.0925 75.1914L30.5861 88.9269L28.1739 87.2899L42.8092 86.8942L43.0423 90.6072L28.4721 92.0436C27.388 92.152 26.4124 91.4799 26.0871 90.4879L26.06 90.4066L21.5664 76.6712L26.0925 75.1914Z" fill="#FCC9A7"/>
<path d="M25.293 145.449L27.4937 151.514L30.7134 148.62L28.6591 143.758L25.293 145.449Z" fill="#FCC9A7"/>
<path d="M26.2227 150.11C26.2227 149.812 26.4774 149.617 26.7322 149.726C27.2309 149.937 28.0602 150.121 29.0413 149.682C30.0658 149.221 30.2555 148.468 30.2555 147.969C30.2555 147.709 30.4397 147.514 30.6782 147.547L38.1748 148.625C38.6301 148.69 39.0583 148.956 39.3619 149.362C39.6491 149.742 39.5136 150.3 39.1125 150.419L27.9193 153.823C27.4802 153.959 27.0032 153.639 26.8731 153.13L26.2389 150.625C26.2281 150.582 26.2227 150.539 26.2227 150.501V150.11Z" fill="#1F252A"/>
<path d="M-6.92472 145.05C-6.69706 144.861 -6.38268 144.926 -6.30137 145.191C-6.13875 145.712 -5.74848 146.46 -4.77279 146.926C-3.75917 147.408 -3.05991 147.061 -2.68048 146.742C-2.47992 146.573 -2.2089 146.59 -2.08423 146.79L1.94859 153.203C2.19251 153.593 2.2684 154.086 2.15457 154.58C2.05158 155.046 1.54206 155.3 1.18431 155.073L-8.65927 148.742C-9.04412 148.492 -9.11459 147.923 -8.81104 147.495L-7.30956 145.392C-7.28246 145.359 -7.25537 145.327 -7.22285 145.3L-6.92472 145.05Z" fill="#1F252A"/>
<path d="M22.8067 96.5352L13.1799 123.242L-0.447113 145.824L-6.52344 142.821L5.59128 120.309L12.2368 97.7927L22.8067 96.5352Z" fill="#092330"/>
<path d="M7.93237 96.9293C7.93237 96.9293 6.1111 100.371 8.94058 105.873L17.7271 122.639L24.4214 148.05L31.0723 145.73L24.7087 120.032L17.8301 99.9811L22.8115 96.5391L7.93237 96.9293Z" fill="#0C2C40"/>
<path d="M16.2219 67.2578L8.7255 68.7972C7.84196 68.9761 7.06136 69.4856 6.53558 70.2174L1.76562 76.8629L8.14009 81.0312L5.84176 99.2277C5.84176 99.2277 8.43816 107.174 24.2767 100.838C24.2767 100.838 22.9108 85.7578 23.8269 75.936L23.3607 69.4694L16.2219 67.2578Z" fill="#DF945B"/>
<path d="M23.3653 69.4648L24.612 69.9202C25.6419 70.2942 26.4441 71.1235 26.7856 72.1697L29.382 80.0889L21.75 81.4983L23.3653 69.4648Z" fill="#DF945B"/>
<path d="M47.676 87.6967C47.676 89.6481 46.0932 91.2308 44.142 91.2308C42.1906 91.2308 40.6133 89.6481 40.6133 87.6967C40.6133 85.7453 42.1961 84.168 44.142 84.168C46.0932 84.168 47.676 85.7453 47.676 87.6967Z" fill="#FCC9A7"/>
<path d="M18.3428 69.5505L17.4918 70.0221C15.8386 69.8866 14.2829 69.5343 14.4184 67.881L14.8141 63.0352L20.8037 63.5284L20.408 68.3743C20.2725 70.0275 19.9961 69.6861 18.3428 69.5505Z" fill="#FCC9A7"/>
<path d="M14.7305 63.6206C14.7305 63.6206 15.5544 67.2089 18.5682 67.0842C21.2025 66.9704 20.9532 63.0352 20.9532 63.0352L14.7305 63.6206Z" fill="#F4BE9A"/>
<path d="M18.0539 65.8084L17.5444 65.7542C14.9968 65.4778 13.1539 63.1903 13.4249 60.6373L13.7392 57.7319C14.0157 55.1843 16.3031 53.3414 18.8561 53.6124L19.3657 53.6666C21.9133 53.943 23.7563 56.2305 23.4853 58.7835L23.1708 61.6889C22.8944 64.2365 20.6069 66.0794 18.0539 65.8084Z" fill="#FCC9A7"/>
<path d="M8.57812 79.7649L10.5078 77.4883" stroke="#CE804A" stroke-width="0.7693" stroke-miterlimit="10" stroke-linecap="round" stroke-linejoin="round"/>
<path d="M23.5391 81.1683L23.8318 76.4688" stroke="#CE804A" stroke-width="0.7693" stroke-miterlimit="10" stroke-linecap="round" stroke-linejoin="round"/>
<path d="M18.3416 69.5499L14.5364 67.2516C12.9103 66.574 11.875 68.146 11.875 68.146L16.4065 72.5907L18.3416 69.5499Z" fill="#EDA472"/>
<path d="M18.3398 69.5511L20.1828 72.4023L22.0258 69.047C22.0258 69.047 21.2994 67.9033 20.3075 68.1689L18.3398 69.5511Z" fill="#EDA472"/>
<path d="M28.2719 87.8408H51.3035C51.6883 87.8408 51.9973 87.5318 51.9973 87.1469C51.9973 86.7621 51.6883 86.4531 51.3035 86.4531H28.2719C27.8871 86.4531 27.5781 86.7621 27.5781 87.1469C27.5781 87.5264 27.8871 87.8408 28.2719 87.8408Z" fill="#D1D1D1"/>
<path d="M51.9981 86.968L54.7517 73.5903C54.8222 73.2597 54.5674 72.9453 54.2259 72.9453H40.214C39.9593 72.9453 39.7371 73.1242 39.6883 73.3789L36.9727 86.9735H51.9981V86.968Z" fill="#D1D1D1"/>
<path d="M53.1967 73.9648L50.6274 86.1013H37.9219L40.4911 73.9648H53.1967Z" fill="#EFEFEF"/>
<path d="M14.0428 59.9461H15.5985L15.902 58.2386C15.902 58.2386 17.5281 57.366 17.2138 55.6802C17.2138 55.6802 24.0598 58.1357 25.1276 55.4037C26.5369 51.7991 21.4254 50.9048 17.2138 51.0078C13.0021 51.1053 13.3056 56.4824 13.3056 56.4824L14.0428 59.9461Z" fill="#1C2226"/>
<path d="M14.9537 59.6019C14.8561 60.5126 14.0376 61.1684 13.127 61.0709C12.2164 60.9733 11.5605 60.1548 11.6581 59.2442C11.7556 58.3335 12.5741 57.6777 13.4847 57.7752C14.3954 57.8728 15.0513 58.6913 14.9537 59.6019Z" fill="#FCC9A7"/>
</svg>
